<svg xmlns="http://www.w3.org/2000/svg" xmlns:xlink="http://www.w3.org/1999/xlink" width="1920" zoomAndPan="magnify" viewBox="0 0 1440 809.999993" height="1080" preserveAspectRatio="xMidYMid meet" version="1.0"><defs><g/></defs><g fill="#000000" fill-opacity="1"><g transform="translate(105.753919, 420.29272)"><g><path d="M 151.25 -162 C 153.75 -160.5 155 -158.414062 155 -155.75 C 155 -154.25 154.414062 -152.582031 153.25 -150.75 C 151.75 -148.914062 149.832031 -148 147.5 -148 C 146.164062 -148 144.832031 -148.414062 143.5 -149.25 C 130.164062 -158.082031 115.582031 -162.5 99.75 -162.5 C 86.25 -162.5 74.039062 -159.332031 63.125 -153 C 52.207031 -146.664062 43.625 -137.789062 37.375 -126.375 C 31.125 -114.957031 28 -102 28 -87.5 C 28 -72.664062 31.164062 -59.539062 37.5 -48.125 C 43.832031 -36.707031 52.457031 -27.875 63.375 -21.625 C 74.289062 -15.375 86.414062 -12.25 99.75 -12.25 C 115.582031 -12.25 130.082031 -16.582031 143.25 -25.25 C 144.582031 -26.082031 146 -26.5 147.5 -26.5 C 149.832031 -26.5 151.75 -25.5 153.25 -23.5 C 154.414062 -22.164062 155 -20.582031 155 -18.75 C 155 -16.082031 153.832031 -14.082031 151.5 -12.75 C 145 -8.414062 137 -4.789062 127.5 -1.875 C 118 1.039062 108.75 2.5 99.75 2.5 C 83.914062 2.5 69.289062 -1.289062 55.875 -8.875 C 42.457031 -16.457031 31.789062 -27.082031 23.875 -40.75 C 15.957031 -54.414062 12 -70 12 -87.5 C 12 -104.332031 15.914062 -119.625 23.75 -133.375 C 31.582031 -147.125 42.164062 -157.875 55.5 -165.625 C 68.832031 -173.375 83.582031 -177.25 99.75 -177.25 C 109.082031 -177.25 118.207031 -175.914062 127.125 -173.25 C 136.039062 -170.582031 144.082031 -166.832031 151.25 -162 Z M 151.25 -162 "/></g></g></g><g fill="#000000" fill-opacity="1"><g transform="translate(245.502035, 420.29272)"><g><path d="M 120.25 -14.75 C 122.414062 -14.75 124.207031 -14.082031 125.625 -12.75 C 127.039062 -11.414062 127.75 -9.664062 127.75 -7.5 C 127.75 -5.332031 127.039062 -3.539062 125.625 -2.125 C 124.207031 -0.707031 122.414062 0 120.25 0 L 31 0 C 28.832031 0 27.039062 -0.707031 25.625 -2.125 C 24.207031 -3.539062 23.5 -5.332031 23.5 -7.5 L 23.5 -167.5 C 23.5 -169.664062 24.25 -171.457031 25.75 -172.875 C 27.25 -174.289062 29.164062 -175 31.5 -175 C 33.664062 -175 35.5 -174.289062 37 -172.875 C 38.5 -171.457031 39.25 -169.664062 39.25 -167.5 L 39.25 -14.75 Z M 120.25 -14.75 "/></g></g></g><g fill="#000000" fill-opacity="1"><g transform="translate(355.000508, 420.29272)"><g><path d="M 122.75 -14.75 C 124.914062 -14.75 126.707031 -14 128.125 -12.5 C 129.539062 -11 130.25 -9.25 130.25 -7.25 C 130.25 -5.082031 129.539062 -3.332031 128.125 -2 C 126.707031 -0.664062 124.914062 0 122.75 0 L 31 0 C 28.832031 0 27.039062 -0.707031 25.625 -2.125 C 24.207031 -3.539062 23.5 -5.332031 23.5 -7.5 L 23.5 -167.5 C 23.5 -169.664062 24.207031 -171.457031 25.625 -172.875 C 27.039062 -174.289062 28.832031 -175 31 -175 L 122.75 -175 C 124.914062 -175 126.707031 -174.289062 128.125 -172.875 C 129.539062 -171.457031 130.25 -169.664062 130.25 -167.5 C 130.25 -165.332031 129.539062 -163.582031 128.125 -162.25 C 126.707031 -160.914062 124.914062 -160.25 122.75 -160.25 L 39.25 -160.25 L 39.25 -97.5 L 111.5 -97.5 C 113.664062 -97.5 115.457031 -96.789062 116.875 -95.375 C 118.289062 -93.957031 119 -92.164062 119 -90 C 119 -87.832031 118.289062 -86.082031 116.875 -84.75 C 115.457031 -83.414062 113.664062 -82.75 111.5 -82.75 L 39.25 -82.75 L 39.25 -14.75 Z M 122.75 -14.75 "/></g></g></g><g fill="#000000" fill-opacity="1"><g transform="translate(473.4989, 420.29272)"><g><path d="M 154 -10 C 154.332031 -8.664062 154.5 -7.664062 154.5 -7 C 154.5 -4.832031 153.75 -3.082031 152.25 -1.75 C 150.75 -0.414062 149 0.25 147 0.25 C 145.332031 0.25 143.875 -0.207031 142.625 -1.125 C 141.375 -2.039062 140.414062 -3.25 139.75 -4.75 L 121 -50.5 L 39.75 -50.5 L 21.25 -4.75 C 19.914062 -1.414062 17.664062 0.25 14.5 0.25 C 12.164062 0.25 10.414062 -0.332031 9.25 -1.5 C 8.082031 -2.664062 7.414062 -4.25 7.25 -6.25 L 7.25 -7 C 7.25 -8 7.332031 -8.75 7.5 -9.25 L 73.5 -170.75 C 74.832031 -174.082031 77.332031 -175.75 81 -175.75 C 82.664062 -175.75 84.125 -175.289062 85.375 -174.375 C 86.625 -173.457031 87.582031 -172.25 88.25 -170.75 Z M 45.5 -65.25 L 115 -65.25 L 80 -150.75 Z M 45.5 -65.25 "/></g></g></g><g fill="#000000" fill-opacity="1"><g transform="translate(611.747, 420.29272)"><g><path d="M 151.25 -13.5 C 153.75 -11.832031 155 -9.75 155 -7.25 C 155 -6.414062 154.664062 -5.332031 154 -4 C 153.332031 -2.832031 152.414062 -1.914062 151.25 -1.25 C 150.082031 -0.582031 148.832031 -0.25 147.5 -0.25 C 145.832031 -0.25 144.414062 -0.582031 143.25 -1.25 C 138.582031 -3.914062 134.832031 -8.25 132 -14.25 C 129.164062 -20.25 127.75 -29.832031 127.75 -43 C 127.75 -54.664062 124.5 -62.875 118 -67.625 C 111.5 -72.375 103.75 -74.75 94.75 -74.75 L 39.25 -74.75 L 39.25 -7.5 C 39.25 -5.332031 38.582031 -3.539062 37.25 -2.125 C 35.914062 -0.707031 34.164062 0 32 0 C 29.664062 0 27.664062 -0.707031 26 -2.125 C 24.332031 -3.539062 23.5 -5.332031 23.5 -7.5 L 23.5 -167.5 C 23.5 -169.664062 24.207031 -171.457031 25.625 -172.875 C 27.039062 -174.289062 28.832031 -175 31 -175 L 98.5 -175 C 108 -175 116.5 -172.957031 124 -168.875 C 131.5 -164.789062 137.375 -159.164062 141.625 -152 C 145.875 -144.832031 148 -136.75 148 -127.75 C 148 -117.082031 145.207031 -107.707031 139.625 -99.625 C 134.039062 -91.539062 126.75 -86 117.75 -83 C 125.082031 -80.164062 131.082031 -75.375 135.75 -68.625 C 140.414062 -61.875 142.832031 -53.664062 143 -44 C 143.164062 -33.664062 143.875 -26.414062 145.125 -22.25 C 146.375 -18.082031 148.414062 -15.164062 151.25 -13.5 Z M 99.25 -88.5 C 105.082031 -89 110.5 -90.914062 115.5 -94.25 C 120.5 -97.582031 124.5 -102.082031 127.5 -107.75 C 130.5 -113.414062 132 -119.914062 132 -127.25 C 132 -136.75 128.789062 -144.625 122.375 -150.875 C 115.957031 -157.125 107.582031 -160.25 97.25 -160.25 L 39.25 -160.25 L 39.25 -88.5 Z M 99.25 -88.5 "/></g></g></g><g fill="#000000" fill-opacity="1"><g transform="translate(755.745073, 420.29272)"><g><path d="M 154 -10 C 154.332031 -8.664062 154.5 -7.664062 154.5 -7 C 154.5 -4.832031 153.75 -3.082031 152.25 -1.75 C 150.75 -0.414062 149 0.25 147 0.25 C 145.332031 0.25 143.875 -0.207031 142.625 -1.125 C 141.375 -2.039062 140.414062 -3.25 139.75 -4.75 L 121 -50.5 L 39.75 -50.5 L 21.25 -4.75 C 19.914062 -1.414062 17.664062 0.25 14.5 0.25 C 12.164062 0.25 10.414062 -0.332031 9.25 -1.5 C 8.082031 -2.664062 7.414062 -4.25 7.25 -6.25 L 7.25 -7 C 7.25 -8 7.332031 -8.75 7.5 -9.25 L 73.5 -170.75 C 74.832031 -174.082031 77.332031 -175.75 81 -175.75 C 82.664062 -175.75 84.125 -175.289062 85.375 -174.375 C 86.625 -173.457031 87.582031 -172.25 88.25 -170.75 Z M 45.5 -65.25 L 115 -65.25 L 80 -150.75 Z M 45.5 -65.25 "/></g></g></g><g fill="#000000" fill-opacity="1"><g transform="translate(893.993174, 420.29272)"><g><path d="M 151.5 -175 C 153.664062 -175 155.375 -174.332031 156.625 -173 C 157.875 -171.664062 158.5 -170 158.5 -168 L 158.5 -8 C 158.5 -5.5 157.75 -3.539062 156.25 -2.125 C 154.75 -0.707031 152.914062 0 150.75 0 C 149.582031 0 148.457031 -0.25 147.375 -0.75 C 146.289062 -1.25 145.414062 -1.832031 144.75 -2.5 L 37.5 -147 L 37.5 -6.75 C 37.5 -4.914062 36.789062 -3.332031 35.375 -2 C 33.957031 -0.664062 32.332031 0 30.5 0 C 28.5 0 26.832031 -0.664062 25.5 -2 C 24.164062 -3.332031 23.5 -4.914062 23.5 -6.75 L 23.5 -167.5 C 23.5 -169.832031 24.207031 -171.664062 25.625 -173 C 27.039062 -174.332031 28.75 -175 30.75 -175 C 33.414062 -175 35.414062 -174.082031 36.75 -172.25 L 144.5 -27 L 144.5 -168 C 144.5 -170 145.164062 -171.664062 146.5 -173 C 147.832031 -174.332031 149.5 -175 151.5 -175 Z M 151.5 -175 "/></g></g></g><g fill="#000000" fill-opacity="1"><g transform="translate(1052.490996, 420.29272)"><g><path d="M 151.25 -162 C 153.75 -160.5 155 -158.414062 155 -155.75 C 155 -154.25 154.414062 -152.582031 153.25 -150.75 C 151.75 -148.914062 149.832031 -148 147.5 -148 C 146.164062 -148 144.832031 -148.414062 143.5 -149.25 C 130.164062 -158.082031 115.582031 -162.5 99.75 -162.5 C 86.25 -162.5 74.039062 -159.332031 63.125 -153 C 52.207031 -146.664062 43.625 -137.789062 37.375 -126.375 C 31.125 -114.957031 28 -102 28 -87.5 C 28 -72.664062 31.164062 -59.539062 37.5 -48.125 C 43.832031 -36.707031 52.457031 -27.875 63.375 -21.625 C 74.289062 -15.375 86.414062 -12.25 99.75 -12.25 C 115.582031 -12.25 130.082031 -16.582031 143.25 -25.25 C 144.582031 -26.082031 146 -26.5 147.5 -26.5 C 149.832031 -26.5 151.75 -25.5 153.25 -23.5 C 154.414062 -22.164062 155 -20.582031 155 -18.75 C 155 -16.082031 153.832031 -14.082031 151.5 -12.75 C 145 -8.414062 137 -4.789062 127.5 -1.875 C 118 1.039062 108.75 2.5 99.75 2.5 C 83.914062 2.5 69.289062 -1.289062 55.875 -8.875 C 42.457031 -16.457031 31.789062 -27.082031 23.875 -40.75 C 15.957031 -54.414062 12 -70 12 -87.5 C 12 -104.332031 15.914062 -119.625 23.75 -133.375 C 31.582031 -147.125 42.164062 -157.875 55.5 -165.625 C 68.832031 -173.375 83.582031 -177.25 99.75 -177.25 C 109.082031 -177.25 118.207031 -175.914062 127.125 -173.25 C 136.039062 -170.582031 144.082031 -166.832031 151.25 -162 Z M 151.25 -162 "/></g></g></g><g fill="#000000" fill-opacity="1"><g transform="translate(1192.239096, 420.29272)"><g><path d="M 122.75 -14.75 C 124.914062 -14.75 126.707031 -14 128.125 -12.5 C 129.539062 -11 130.25 -9.25 130.25 -7.25 C 130.25 -5.082031 129.539062 -3.332031 128.125 -2 C 126.707031 -0.664062 124.914062 0 122.75 0 L 31 0 C 28.832031 0 27.039062 -0.707031 25.625 -2.125 C 24.207031 -3.539062 23.5 -5.332031 23.5 -7.5 L 23.5 -167.5 C 23.5 -169.664062 24.207031 -171.457031 25.625 -172.875 C 27.039062 -174.289062 28.832031 -175 31 -175 L 122.75 -175 C 124.914062 -175 126.707031 -174.289062 128.125 -172.875 C 129.539062 -171.457031 130.25 -169.664062 130.25 -167.5 C 130.25 -165.332031 129.539062 -163.582031 128.125 -162.25 C 126.707031 -160.914062 124.914062 -160.25 122.75 -160.25 L 39.25 -160.25 L 39.25 -97.5 L 111.5 -97.5 C 113.664062 -97.5 115.457031 -96.789062 116.875 -95.375 C 118.289062 -93.957031 119 -92.164062 119 -90 C 119 -87.832031 118.289062 -86.082031 116.875 -84.75 C 115.457031 -83.414062 113.664062 -82.75 111.5 -82.75 L 39.25 -82.75 L 39.25 -14.75 Z M 122.75 -14.75 "/></g></g></g><g fill="#000000" fill-opacity="1"><g transform="translate(193.942964, 567.948711)"><g><path d="M 44.25 1.5 C 36.945312 1.5 30.492188 0.472656 24.890625 -1.578125 C 19.296875 -3.628906 13.945312 -6.953125 8.84375 -11.546875 C 6.75 -13.347656 5.703125 -15.398438 5.703125 -17.703125 C 5.703125 -19.503906 6.398438 -21.128906 7.796875 -22.578125 C 9.203125 -24.023438 10.851562 -24.75 12.75 -24.75 C 14.445312 -24.75 15.894531 -24.195312 17.09375 -23.09375 C 21.09375 -19.394531 25.21875 -16.671875 29.46875 -14.921875 C 33.71875 -13.171875 38.546875 -12.296875 43.953125 -12.296875 C 50.253906 -12.296875 55.578125 -13.742188 59.921875 -16.640625 C 64.273438 -19.546875 66.453125 -23.195312 66.453125 -27.59375 C 66.347656 -32.800781 64.171875 -36.828125 59.921875 -39.671875 C 55.671875 -42.523438 49.195312 -44.898438 40.5 -46.796875 C 30.195312 -48.898438 22.269531 -52.347656 16.71875 -57.140625 C 11.175781 -61.941406 8.40625 -68.59375 8.40625 -77.09375 C 8.40625 -83 9.953125 -88.175781 13.046875 -92.625 C 16.148438 -97.070312 20.453125 -100.492188 25.953125 -102.890625 C 31.453125 -105.296875 37.648438 -106.5 44.546875 -106.5 C 50.742188 -106.5 56.59375 -105.5 62.09375 -103.5 C 67.59375 -101.5 72.046875 -98.847656 75.453125 -95.546875 C 77.753906 -93.546875 78.90625 -91.394531 78.90625 -89.09375 C 78.90625 -87.300781 78.226562 -85.703125 76.875 -84.296875 C 75.519531 -82.898438 73.894531 -82.203125 72 -82.203125 C 70.601562 -82.203125 69.453125 -82.601562 68.546875 -83.40625 C 65.953125 -86 62.351562 -88.195312 57.75 -90 C 53.144531 -91.800781 48.742188 -92.703125 44.546875 -92.703125 C 37.847656 -92.703125 32.523438 -91.328125 28.578125 -88.578125 C 24.628906 -85.828125 22.65625 -82.203125 22.65625 -77.703125 C 22.65625 -72.796875 24.628906 -69.039062 28.578125 -66.4375 C 32.523438 -63.84375 38.398438 -61.644531 46.203125 -59.84375 C 54.003906 -58.144531 60.378906 -56.144531 65.328125 -53.84375 C 70.273438 -51.550781 74.097656 -48.351562 76.796875 -44.25 C 79.492188 -40.144531 80.84375 -34.796875 80.84375 -28.203125 C 80.84375 -22.398438 79.21875 -17.25 75.96875 -12.75 C 72.71875 -8.25 68.289062 -4.75 62.6875 -2.25 C 57.09375 0.25 50.945312 1.5 44.25 1.5 Z M 44.25 1.5 "/></g></g></g><g fill="#000000" fill-opacity="1"><g transform="translate(379.04297, 567.948711)"><g><path d="M 84.59375 -98.25 C 84.59375 -96.75 84.144531 -95.25 83.25 -93.75 L 51 -48.296875 L 51 -7.203125 C 51 -5.203125 50.320312 -3.5 48.96875 -2.09375 C 47.625 -0.695312 46 0 44.09375 0 C 42.09375 0 40.394531 -0.695312 39 -2.09375 C 37.601562 -3.5 36.90625 -5.203125 36.90625 -7.203125 L 36.90625 -49.5 L 4.796875 -92.84375 C 3.398438 -94.644531 2.703125 -96.445312 2.703125 -98.25 C 2.703125 -100.25 3.5 -101.945312 5.09375 -103.34375 C 6.695312 -104.75 8.445312 -105.453125 10.34375 -105.453125 C 12.644531 -105.453125 14.597656 -104.351562 16.203125 -102.15625 L 44.40625 -63.15625 L 71.546875 -102 C 73.148438 -104.300781 75.148438 -105.453125 77.546875 -105.453125 C 79.453125 -105.453125 81.101562 -104.75 82.5 -103.34375 C 83.894531 -101.945312 84.59375 -100.25 84.59375 -98.25 Z M 84.59375 -98.25 "/></g></g></g><g fill="#000000" fill-opacity="1"><g transform="translate(563.992968, 567.948711)"><g><path d="M 44.25 1.5 C 36.945312 1.5 30.492188 0.472656 24.890625 -1.578125 C 19.296875 -3.628906 13.945312 -6.953125 8.84375 -11.546875 C 6.75 -13.347656 5.703125 -15.398438 5.703125 -17.703125 C 5.703125 -19.503906 6.398438 -21.128906 7.796875 -22.578125 C 9.203125 -24.023438 10.851562 -24.75 12.75 -24.75 C 14.445312 -24.75 15.894531 -24.195312 17.09375 -23.09375 C 21.09375 -19.394531 25.21875 -16.671875 29.46875 -14.921875 C 33.71875 -13.171875 38.546875 -12.296875 43.953125 -12.296875 C 50.253906 -12.296875 55.578125 -13.742188 59.921875 -16.640625 C 64.273438 -19.546875 66.453125 -23.195312 66.453125 -27.59375 C 66.347656 -32.800781 64.171875 -36.828125 59.921875 -39.671875 C 55.671875 -42.523438 49.195312 -44.898438 40.5 -46.796875 C 30.195312 -48.898438 22.269531 -52.347656 16.71875 -57.140625 C 11.175781 -61.941406 8.40625 -68.59375 8.40625 -77.09375 C 8.40625 -83 9.953125 -88.175781 13.046875 -92.625 C 16.148438 -97.070312 20.453125 -100.492188 25.953125 -102.890625 C 31.453125 -105.296875 37.648438 -106.5 44.546875 -106.5 C 50.742188 -106.5 56.59375 -105.5 62.09375 -103.5 C 67.59375 -101.5 72.046875 -98.847656 75.453125 -95.546875 C 77.753906 -93.546875 78.90625 -91.394531 78.90625 -89.09375 C 78.90625 -87.300781 78.226562 -85.703125 76.875 -84.296875 C 75.519531 -82.898438 73.894531 -82.203125 72 -82.203125 C 70.601562 -82.203125 69.453125 -82.601562 68.546875 -83.40625 C 65.953125 -86 62.351562 -88.195312 57.75 -90 C 53.144531 -91.800781 48.742188 -92.703125 44.546875 -92.703125 C 37.847656 -92.703125 32.523438 -91.328125 28.578125 -88.578125 C 24.628906 -85.828125 22.65625 -82.203125 22.65625 -77.703125 C 22.65625 -72.796875 24.628906 -69.039062 28.578125 -66.4375 C 32.523438 -63.84375 38.398438 -61.644531 46.203125 -59.84375 C 54.003906 -58.144531 60.378906 -56.144531 65.328125 -53.84375 C 70.273438 -51.550781 74.097656 -48.351562 76.796875 -44.25 C 79.492188 -40.144531 80.84375 -34.796875 80.84375 -28.203125 C 80.84375 -22.398438 79.21875 -17.25 75.96875 -12.75 C 72.71875 -8.25 68.289062 -4.75 62.6875 -2.25 C 57.09375 0.25 50.945312 1.5 44.25 1.5 Z M 44.25 1.5 "/></g></g></g><g fill="#000000" fill-opacity="1"><g transform="translate(749.092996, 567.948711)"><g><path d="M 80.546875 -105 C 82.648438 -105 84.375 -104.375 85.71875 -103.125 C 87.070312 -101.875 87.75 -100.195312 87.75 -98.09375 C 87.75 -96 87.070312 -94.347656 85.71875 -93.140625 C 84.375 -91.941406 82.648438 -91.34375 80.546875 -91.34375 L 53.84375 -91.34375 L 53.84375 -7.203125 C 53.84375 -5.203125 53.117188 -3.5 51.671875 -2.09375 C 50.222656 -0.695312 48.398438 0 46.203125 0 C 44.003906 0 42.175781 -0.695312 40.71875 -2.09375 C 39.269531 -3.5 38.546875 -5.203125 38.546875 -7.203125 L 38.546875 -91.34375 L 12 -91.34375 C 9.894531 -91.34375 8.164062 -91.96875 6.8125 -93.21875 C 5.46875 -94.46875 4.796875 -96.144531 4.796875 -98.25 C 4.796875 -100.25 5.46875 -101.875 6.8125 -103.125 C 8.164062 -104.375 9.894531 -105 12 -105 Z M 80.546875 -105 "/></g></g></g><g fill="#000000" fill-opacity="1"><g transform="translate(939.443024, 567.948711)"><g><path d="M 71.84375 -13.796875 C 73.945312 -13.796875 75.671875 -13.09375 77.015625 -11.6875 C 78.367188 -10.289062 79.046875 -8.644531 79.046875 -6.75 C 79.046875 -4.75 78.367188 -3.125 77.015625 -1.875 C 75.671875 -0.625 73.945312 0 71.84375 0 L 19.65625 0 C 17.65625 0 15.953125 -0.695312 14.546875 -2.09375 C 13.148438 -3.5 12.453125 -5.203125 12.453125 -7.203125 L 12.453125 -97.796875 C 12.453125 -99.796875 13.148438 -101.492188 14.546875 -102.890625 C 15.953125 -104.296875 17.65625 -105 19.65625 -105 L 71.84375 -105 C 73.945312 -105 75.671875 -104.347656 77.015625 -103.046875 C 78.367188 -101.742188 79.046875 -100.046875 79.046875 -97.953125 C 79.046875 -95.953125 78.367188 -94.328125 77.015625 -93.078125 C 75.671875 -91.828125 73.945312 -91.203125 71.84375 -91.203125 L 27.296875 -91.203125 L 27.296875 -60.59375 L 65.09375 -60.59375 C 67.195312 -60.59375 68.921875 -59.941406 70.265625 -58.640625 C 71.617188 -57.347656 72.296875 -55.703125 72.296875 -53.703125 C 72.296875 -51.597656 71.617188 -49.945312 70.265625 -48.75 C 68.921875 -47.550781 67.195312 -46.953125 65.09375 -46.953125 L 27.296875 -46.953125 L 27.296875 -13.796875 Z M 71.84375 -13.796875 "/></g></g></g><g fill="#000000" fill-opacity="1"><g transform="translate(1122.74303, 567.948711)"><g><path d="M 103.65625 -105.15625 C 105.65625 -105.050781 107.351562 -104.320312 108.75 -102.96875 C 110.144531 -101.625 110.84375 -99.953125 110.84375 -97.953125 L 110.84375 -7.203125 C 110.84375 -5.203125 110.164062 -3.5 108.8125 -2.09375 C 107.46875 -0.695312 105.695312 0 103.5 0 C 101.300781 0 99.5 -0.671875 98.09375 -2.015625 C 96.695312 -3.367188 96 -5.097656 96 -7.203125 L 96 -76.65625 L 66.90625 -32.546875 C 66.195312 -31.648438 65.316406 -30.898438 64.265625 -30.296875 C 63.222656 -29.703125 62.148438 -29.453125 61.046875 -29.546875 C 60.046875 -29.453125 59.019531 -29.703125 57.96875 -30.296875 C 56.925781 -30.898438 56.050781 -31.648438 55.34375 -32.546875 L 26.09375 -78 L 26.09375 -7.203125 C 26.09375 -5.097656 25.46875 -3.367188 24.21875 -2.015625 C 22.96875 -0.671875 21.296875 0 19.203125 0 C 17.203125 0 15.578125 -0.671875 14.328125 -2.015625 C 13.078125 -3.367188 12.453125 -5.097656 12.453125 -7.203125 L 12.453125 -97.953125 C 12.453125 -99.847656 13.148438 -101.519531 14.546875 -102.96875 C 15.953125 -104.425781 17.703125 -105.15625 19.796875 -105.15625 C 20.992188 -105.15625 22.164062 -104.851562 23.3125 -104.25 C 24.46875 -103.644531 25.394531 -102.84375 26.09375 -101.84375 L 61.65625 -48 L 97.65625 -101.84375 C 99.25 -104.050781 101.25 -105.15625 103.65625 -105.15625 Z M 103.65625 -105.15625 "/></g></g></g></svg>